<svg width="198" height="19" fill="none" xmlns="http://www.w3.org/2000/svg"><path d="M.517 18V.545h3.69v7.696h.23L10.72.545h4.423L8.665 8.361 15.219 18h-4.415l-4.781-7.176-1.816 2.216V18H.517Zm15.587 0V.545h11.761v3.043h-8.07v4.16h7.465v3.042h-7.466v4.167H27.9V18H16.104ZM33.53.545V18h-3.69V.545h3.69Zm1.411 3.043V.545h14.335v3.043h-5.344V18h-3.647V3.588H34.94ZM50.677 18V.545h3.69v7.202h7.492V.545h3.682V18h-3.682v-7.21h-7.492V18h-3.69Zm21.541 0V.545h6.989c1.284 0 2.355.19 3.213.571.858.381 1.502.91 1.934 1.586.432.67.648 1.443.648 2.318 0 .682-.136 1.281-.409 1.798a3.53 3.53 0 0 1-1.125 1.262 4.612 4.612 0 0 1-1.62.69v.17a3.909 3.909 0 0 1 1.867.563c.585.346 1.06.832 1.423 1.457.364.62.546 1.358.546 2.216 0 .926-.23 1.753-.69 2.48-.455.722-1.128 1.293-2.02 1.713-.892.42-1.992.631-3.299.631h-7.457Zm3.69-3.017h3.009c1.028 0 1.778-.196 2.25-.588.471-.398.707-.926.707-1.585 0-.483-.116-.91-.35-1.279a2.374 2.374 0 0 0-.996-.87c-.427-.21-.935-.314-1.526-.314h-3.094v4.636Zm0-7.134h2.736c.506 0 .955-.088 1.347-.264a2.24 2.24 0 0 0 .937-.767c.233-.33.35-.724.35-1.184 0-.631-.225-1.14-.674-1.526-.443-.386-1.073-.58-1.892-.58h-2.804V7.85ZM87.125 18V.545h3.69v14.412H98.3V18H87.125Zm16.111 0h-3.954L105.307.545h4.756L116.08 18h-3.955l-4.372-13.466h-.136L103.236 18Zm-.247-6.86h9.341v2.88h-9.341v-2.88Zm28.812-4.484h-3.733a3.632 3.632 0 0 0-.418-1.287c-.21-.38-.48-.704-.809-.971a3.566 3.566 0 0 0-1.142-.614 4.367 4.367 0 0 0-1.389-.213c-.904 0-1.691.224-2.361.673-.671.444-1.191 1.091-1.56 1.944-.369.846-.554 1.875-.554 3.085 0 1.244.185 2.29.554 3.136.375.847.898 1.486 1.568 1.918.671.431 1.446.647 2.327.647a4.6 4.6 0 0 0 1.372-.196c.426-.13.804-.32 1.134-.57a3.3 3.3 0 0 0 .818-.93 3.62 3.62 0 0 0 .46-1.244l3.733.017a6.768 6.768 0 0 1-.724 2.318 6.967 6.967 0 0 1-1.543 1.986c-.642.58-1.409 1.04-2.301 1.38-.886.336-1.889.504-3.009.504-1.556 0-2.949-.353-4.176-1.057-1.221-.705-2.187-1.725-2.898-3.06-.704-1.335-1.056-2.951-1.056-4.85 0-1.903.358-3.522 1.074-4.857.715-1.335 1.687-2.353 2.914-3.051C121.31.659 122.69.307 124.224.307c1.012 0 1.949.142 2.813.426a7.142 7.142 0 0 1 2.31 1.244 6.414 6.414 0 0 1 1.636 1.986c.426.784.699 1.682.818 2.693ZM133.487 18V.545h3.691v7.696h.23l6.281-7.696h4.423l-6.477 7.816L148.189 18h-4.415l-4.781-7.176-1.815 2.216V18h-3.691ZM149.074.545h4.551l4.807 11.728h.205L163.444.545h4.551V18h-3.58V6.64h-.145l-4.517 11.275h-2.437l-4.517-11.318h-.145V18h-3.58V.545ZM170.075 18V.545h11.762v3.043h-8.071v4.16h7.465v3.042h-7.465v4.167h8.105V18h-11.796Zm13.735 0V.545h6.887c1.318 0 2.443.236 3.375.708.937.466 1.65 1.128 2.139 1.986.494.852.742 1.855.742 3.008 0 1.16-.25 2.156-.75 2.992-.5.83-1.225 1.465-2.174 1.909-.943.443-2.085.665-3.426.665h-4.611V8.846h4.015c.704 0 1.289-.097 1.755-.29.466-.193.813-.483 1.04-.87.233-.386.349-.866.349-1.44 0-.58-.116-1.068-.349-1.466-.227-.397-.577-.699-1.048-.903-.466-.21-1.054-.316-1.765-.316h-2.488V18h-3.691Zm9.427-7.943L197.575 18h-4.074l-4.244-7.943h3.98Z" fill="#01021D"/></svg>