<svg width="22" height="22" viewBox="0 0 22 22" fill="none" xmlns="http://www.w3.org/2000/svg">
<path d="M11 18.7917H6.41666C3.66666 18.7917 1.83333 17.4167 1.83333 14.2083V7.79168C1.83333 4.58334 3.66666 3.20834 6.41666 3.20834H15.5833C18.3333 3.20834 20.1667 4.58334 20.1667 7.79168V10.5417" stroke="white" stroke-width="1.3" stroke-miterlimit="10" stroke-linecap="round" stroke-linejoin="round"/>
<path d="M15.5833 8.25L12.7142 10.5417C11.77 11.2933 10.2208 11.2933 9.27667 10.5417L6.41667 8.25" stroke="white" stroke-width="1.3" stroke-miterlimit="10" stroke-linecap="round" stroke-linejoin="round"/>
<path d="M17.6092 13.5392L14.3642 16.7842C14.2359 16.9125 14.1167 17.1508 14.0892 17.325L13.915 18.5625C13.8508 19.0117 14.1625 19.3234 14.6117 19.2592L15.8492 19.085C16.0234 19.0575 16.2708 18.9383 16.39 18.81L19.635 15.565C20.1942 15.0059 20.46 14.355 19.635 13.53C18.8192 12.7142 18.1683 12.98 17.6092 13.5392Z" stroke="white" stroke-width="1.3" stroke-miterlimit="10" stroke-linecap="round" stroke-linejoin="round"/>
<path d="M17.1417 14.0067C17.4167 14.9967 18.1867 15.7667 19.1767 16.0417" stroke="white" stroke-width="1.3" stroke-miterlimit="10" stroke-linecap="round" stroke-linejoin="round"/>
</svg>
