<svg width="198" height="19" viewBox="0 0 198 19" fill="none" xmlns="http://www.w3.org/2000/svg">
<path d="M0.517045 18V0.545454H4.20739V8.24148H4.4375L10.7188 0.545454H15.142L8.66477 8.3608L15.2188 18H10.804L6.02273 10.8239L4.20739 13.0398V18H0.517045ZM16.1039 18V0.545454H27.8653V3.58807H19.7943V7.74716H27.2602V10.7898H19.7943V14.9574H27.8994V18H16.1039ZM33.5296 0.545454V18H29.8392V0.545454H33.5296ZM34.941 3.58807V0.545454H49.2762V3.58807H43.9325V18H40.2848V3.58807H34.941ZM50.677 18V0.545454H54.3674V7.74716H61.8589V0.545454H65.5407V18H61.8589V10.7898H54.3674V18H50.677ZM72.218 18V0.545454H79.2066C80.4907 0.545454 81.5617 0.735795 82.4197 1.11648C83.2776 1.49716 83.9225 2.02557 84.3543 2.7017C84.7862 3.37216 85.0021 4.14489 85.0021 5.01989C85.0021 5.7017 84.8657 6.30114 84.593 6.81818C84.3203 7.32955 83.9453 7.75 83.468 8.07955C82.9964 8.40341 82.4566 8.63352 81.8487 8.76989V8.94034C82.5134 8.96875 83.1356 9.15625 83.7151 9.50284C84.3004 9.84943 84.7748 10.3352 85.1384 10.9602C85.5021 11.5795 85.6839 12.3182 85.6839 13.1761C85.6839 14.1023 85.4538 14.929 84.9935 15.6562C84.539 16.3778 83.8657 16.9489 82.9737 17.3693C82.0816 17.7898 80.9822 18 79.6754 18H72.218ZM75.9083 14.983H78.9168C79.9453 14.983 80.6953 14.7869 81.1668 14.3949C81.6384 13.9972 81.8742 13.4687 81.8742 12.8097C81.8742 12.3267 81.7578 11.9006 81.5248 11.5312C81.2918 11.1619 80.9595 10.8722 80.5276 10.6619C80.1015 10.4517 79.593 10.3466 79.0021 10.3466H75.9083V14.983ZM75.9083 7.84943H78.6441C79.1498 7.84943 79.5987 7.76136 79.9907 7.58523C80.3884 7.40341 80.7009 7.14773 80.9282 6.81818C81.1612 6.48864 81.2776 6.09375 81.2776 5.63352C81.2776 5.00284 81.0532 4.49432 80.6043 4.10795C80.1612 3.72159 79.5305 3.52841 78.7123 3.52841H75.9083V7.84943ZM87.1252 18V0.545454H90.8155V14.9574H98.2985V18H87.1252ZM103.236 18H99.2816L105.307 0.545454H110.063L116.08 18H112.125L107.753 4.53409H107.617L103.236 18ZM102.989 11.1392H112.33V14.0199H102.989V11.1392ZM131.801 6.65625H128.068C128 6.1733 127.861 5.74432 127.65 5.36932C127.44 4.98864 127.17 4.66477 126.841 4.39773C126.511 4.13068 126.131 3.92614 125.699 3.78409C125.273 3.64205 124.81 3.57102 124.31 3.57102C123.406 3.57102 122.619 3.79545 121.949 4.24432C121.278 4.6875 120.758 5.33523 120.389 6.1875C120.02 7.03409 119.835 8.0625 119.835 9.27273C119.835 10.517 120.02 11.5625 120.389 12.4091C120.764 13.2557 121.287 13.8949 121.957 14.3267C122.628 14.7585 123.403 14.9744 124.284 14.9744C124.778 14.9744 125.236 14.9091 125.656 14.7784C126.082 14.6477 126.46 14.4574 126.79 14.2074C127.119 13.9517 127.392 13.642 127.608 13.2784C127.829 12.9148 127.983 12.5 128.068 12.0341L131.801 12.0511C131.704 12.8523 131.463 13.625 131.077 14.3693C130.696 15.108 130.182 15.7699 129.534 16.3551C128.892 16.9347 128.125 17.3949 127.233 17.7358C126.347 18.071 125.344 18.2386 124.224 18.2386C122.668 18.2386 121.275 17.8864 120.048 17.1818C118.827 16.4773 117.861 15.4574 117.15 14.1222C116.446 12.7869 116.094 11.1705 116.094 9.27273C116.094 7.36932 116.452 5.75 117.168 4.41477C117.883 3.07955 118.855 2.0625 120.082 1.36364C121.31 0.659091 122.69 0.306818 124.224 0.306818C125.236 0.306818 126.173 0.448863 127.037 0.732954C127.906 1.01705 128.676 1.43182 129.347 1.97727C130.017 2.51704 130.562 3.17898 130.983 3.96307C131.409 4.74716 131.682 5.64489 131.801 6.65625ZM133.487 18V0.545454H137.178V8.24148H137.408L143.689 0.545454H148.112L141.635 8.3608L148.189 18H143.774L138.993 10.8239L137.178 13.0398V18H133.487ZM149.074 0.545454H153.625L158.432 12.2727H158.637L163.444 0.545454H167.995V18H164.415V6.6392H164.27L159.753 17.9148H157.316L152.799 6.59659H152.654V18H149.074V0.545454ZM170.075 18V0.545454H181.837V3.58807H173.766V7.74716H181.231V10.7898H173.766V14.9574H181.871V18H170.075ZM183.81 18V0.545454H190.697C192.015 0.545454 193.14 0.78125 194.072 1.25284C195.009 1.71875 195.722 2.38068 196.211 3.23864C196.705 4.09091 196.953 5.09375 196.953 6.24716C196.953 7.40625 196.703 8.40341 196.203 9.23864C195.703 10.0682 194.978 10.7045 194.029 11.1477C193.086 11.5909 191.944 11.8125 190.603 11.8125H185.992V8.84659H190.007C190.711 8.84659 191.296 8.75 191.762 8.55682C192.228 8.36364 192.575 8.07386 192.802 7.6875C193.035 7.30114 193.151 6.82102 193.151 6.24716C193.151 5.66761 193.035 5.17898 192.802 4.78125C192.575 4.38352 192.225 4.08239 191.754 3.87784C191.288 3.66761 190.7 3.5625 189.989 3.5625H187.501V18H183.81ZM193.237 10.0568L197.575 18H193.501L189.257 10.0568H193.237Z" fill="#01021D"/>
</svg>
